<?xml version="1.0" encoding="utf-8"?>
<!-- Generator: Adobe Illustrator 28.2.0, SVG Export Plug-In . SVG Version: 6.00 Build 0)  -->
<svg version="1.1" id="Layer_2_00000175312239009483266070000000660979449476216449_"
	 xmlns="http://www.w3.org/2000/svg" xmlns:xlink="http://www.w3.org/1999/xlink" x="0px" y="0px" viewBox="0 0 529.6 529.6"
	 style="enable-background:new 0 0 529.6 529.6;" xml:space="preserve">
<style type="text/css">
	.st0{fill:#FFFFFF;}
</style>
<g id="Layer_1-2">
	<path class="st0" d="M367,0H0v367c0,89.9,72.8,162.7,162.7,162.7h367v-367C529.6,72.8,456.8,0,367,0z M163,244.4
		c0-22.5,18.2-40.7,40.7-40.7h163.5c45.1,0,84.5,24.6,105.5,61.1h-0.2c10.4,17.9,16.3,38.7,16.3,60.9v163.1H163
		c-67.5,0-122.2-54.7-122.2-122.2v-10l-0.5-79c0.2,41.2,43.6,89,120.9,89h164.7c22.5,0,40.7,18.2,40.7,40.7
		c11.2,0,21.4-4.6,28.8-11.9c7.4-7.4,11.9-17.6,11.9-28.8v-40.8c0-22.5-18.2-40.7-40.7-40.7c0,22.5-18.2,40.7-40.7,40.7H162.4
		c-45.1,0-84.5-24.6-105.5-61.1H57c-10.4-17.9-16.3-38.7-16.3-60.9V40.7h325.9c67.5,0,122.2,54.7,122.2,122.2v10l0.5,79
		c-0.2-41.2-43.6-89-120.9-89H203.7c-22.5,0-40.7-18.2-40.7-40.7c-11.2,0-21.4,4.6-28.8,11.9c-7.4,7.4-11.9,17.6-11.9,28.8v40.8
		C122.2,226.2,140.5,244.4,163,244.4L163,244.4z"/>
</g>
</svg>
