<?xml version="1.0" encoding="UTF-8"?>
<svg id="Layer_2" data-name="Layer 2" xmlns="http://www.w3.org/2000/svg" viewBox="0 0 529.63 529.63">
  <defs>
    <style>
      .cls-1 {
        fill: #0093fa;
        stroke-width: 0px;
      }
    </style>
  </defs>
  <g id="Layer_1-2" data-name="Layer 1">
    <path class="cls-1" d="M366.95,0H0v366.95c0,89.85,72.83,162.68,162.68,162.68h366.95V162.68C529.63,72.84,456.79,0,366.95,0ZM162.96,244.45c0-22.5,18.24-40.74,40.74-40.74h163.54c45.15,0,84.54,24.59,105.54,61.11h-.17c10.35,17.93,16.28,38.74,16.28,60.93v163.14H162.96c-67.5,0-122.22-54.72-122.22-122.22v-10l-.46-79c.24,41.22,43.64,89,120.94,89h164.71c22.5,0,40.74,18.24,40.74,40.74,11.25,0,21.43-4.56,28.81-11.93,7.37-7.37,11.93-17.56,11.93-28.81v-40.75c0-22.5-18.24-40.74-40.74-40.74,0,22.5-18.24,40.74-40.74,40.74h-163.55c-45.14,0-84.54-24.59-105.53-61.1h.17c-10.36-17.93-16.28-38.74-16.28-60.93V40.74h325.93c67.5,0,122.22,54.72,122.22,122.22v10l.45,79c-.24-41.21-43.63-89-120.94-89h-164.7c-22.5,0-40.74-18.24-40.74-40.74-11.25,0-21.44,4.56-28.81,11.93-7.37,7.38-11.93,17.56-11.93,28.81v40.75c0,22.5,18.24,40.74,40.74,40.74Z"/>
  </g>
</svg>